# xmcd CD database file
#
# Track frame offsets:
#	150
#	45724
#	76421
#	126751
#	147724
#	193977
#
# Disc length: 2990 seconds
#
# Revision: 0
# Processed by: cddbd v1.5.2PL0 Copyright (c) Steve Scherf et al.
# Submitted via: CDex 1.81
#
DISCID=590bac06
DTITLE=V.S.O.P. - Five Stars
DYEAR=1979
DGENRE=Jazz
TTITLE0=Skagly
TTITLE1=Finger Painting
TTITLE2=Mutants On The Beach
TTITLE3=Circe
TTITLE4=Skagly
TTITLE5=Finger Painting
EXTD=YEAR: 1979
EXTT0=
EXTT1=
EXTT2=
EXTT3=
EXTT4=
EXTT5=
PLAYORDER=
